<svg xmlns="http://www.w3.org/2000/svg" xmlns:xlink="http://www.w3.org/1999/xlink" width="500" zoomAndPan="magnify" viewBox="0 0 375 374.999991" height="500" preserveAspectRatio="xMidYMid meet" version="1.0"><defs><g/><clipPath id="92f2a0b9ac"><path d="M 187.5 375 C 137.441406 375 90.304688 355.515625 54.929688 320.070312 C 19.484375 284.695312 0 237.558594 0 187.5 C 0 137.441406 19.484375 90.304688 54.929688 54.929688 C 90.304688 19.484375 137.441406 0 187.5 0 C 237.558594 0 284.695312 19.484375 320.070312 54.929688 C 355.515625 90.378906 375 137.441406 375 187.5 C 375 237.558594 355.515625 284.695312 320.070312 320.070312 C 284.695312 355.515625 237.558594 375 187.5 375 Z M 187.5 11.242188 C 140.4375 11.242188 96.148438 29.601562 62.875 62.875 C 29.601562 96.148438 11.242188 140.4375 11.242188 187.5 C 11.242188 234.5625 29.601562 278.851562 62.875 312.125 C 96.148438 345.398438 140.4375 363.757812 187.5 363.757812 C 234.5625 363.757812 278.851562 345.398438 312.125 312.125 C 345.398438 278.851562 363.757812 234.5625 363.757812 187.5 C 363.757812 140.4375 345.398438 96.148438 312.125 62.875 C 278.851562 29.601562 234.5625 11.242188 187.5 11.242188 Z M 187.5 11.242188 " clip-rule="nonzero"/></clipPath></defs><g clip-path="url(#92f2a0b9ac)"><rect x="-37.5" width="450" fill="#eba200" y="-37.499999" height="449.999989" fill-opacity="1"/></g><g fill="#eba200" fill-opacity="1"><g transform="translate(41.904021, 233.899512)"><g><path d="M 10.046875 0 L 53.09375 0 L 53.09375 -10.59375 L 22 -10.59375 L 22 -94.890625 L 10.046875 -94.890625 Z M 10.046875 0 "/></g></g></g><g fill="#eba200" fill-opacity="1"><g transform="translate(96.640187, 233.899512)"><g><path d="M 39.0625 1.375 C 60.375 1.375 73.4375 -16.640625 73.4375 -47.453125 C 73.4375 -78.25 60.375 -96.265625 39.0625 -96.265625 C 17.734375 -96.265625 4.953125 -78.25 4.953125 -47.453125 C 4.953125 -16.640625 17.734375 1.375 39.0625 1.375 Z M 39.203125 -9.484375 C 25.4375 -9.484375 16.78125 -23.375 16.78125 -47.453125 C 16.78125 -71.65625 25.4375 -85.546875 39.203125 -85.546875 C 52.953125 -85.546875 61.609375 -71.65625 61.609375 -47.453125 C 61.609375 -23.375 52.953125 -9.484375 39.203125 -9.484375 Z M 39.203125 -9.484375 "/></g></g></g><g fill="#eba200" fill-opacity="1"><g transform="translate(175.031192, 233.899512)"><g><path d="M 44.828125 -39.203125 L 61.0625 -39.203125 C 60.921875 -34.796875 60.375 -30.8125 59.40625 -27.234375 C 56.390625 -15.8125 49.09375 -9.625 39.46875 -9.625 C 22.28125 -9.625 16.78125 -27.5 16.78125 -48 C 16.78125 -67.9375 21.875 -85.546875 39.890625 -85.546875 C 53.09375 -85.546875 58.859375 -79.078125 62.03125 -67.25 L 72.34375 -70.828125 C 68.359375 -86.5 58.71875 -96.40625 39.609375 -96.40625 C 14.578125 -96.40625 4.953125 -74.265625 4.953125 -47.71875 C 4.953125 -20.484375 14.03125 1.375 39.0625 1.375 C 51.4375 1.375 59.6875 -7.015625 62.296875 -15.8125 L 62.4375 0 L 72.203125 0 L 72.203125 -48.828125 L 44.828125 -48.828125 Z M 44.828125 -39.203125 "/></g></g></g><g fill="#eba200" fill-opacity="1"><g transform="translate(254.659956, 233.899512)"><g><path d="M 39.0625 1.375 C 60.375 1.375 73.4375 -16.640625 73.4375 -47.453125 C 73.4375 -78.25 60.375 -96.265625 39.0625 -96.265625 C 17.734375 -96.265625 4.953125 -78.25 4.953125 -47.453125 C 4.953125 -16.640625 17.734375 1.375 39.0625 1.375 Z M 39.203125 -9.484375 C 25.4375 -9.484375 16.78125 -23.375 16.78125 -47.453125 C 16.78125 -71.65625 25.4375 -85.546875 39.203125 -85.546875 C 52.953125 -85.546875 61.609375 -71.65625 61.609375 -47.453125 C 61.609375 -23.375 52.953125 -9.484375 39.203125 -9.484375 Z M 39.203125 -9.484375 "/></g></g></g></svg>